<?xml version="1.0" encoding="UTF-8" standalone="no"?>
<svg
   viewBox="-210 0 420 420"
   version="1.1"
   id="svg58"
   sodipodi:docname="EzASM.svg"
   inkscape:version="1.2.1 (9c6d41e410, 2022-07-14)"
   xmlns:inkscape="http://www.inkscape.org/namespaces/inkscape"
   xmlns:sodipodi="http://sodipodi.sourceforge.net/DTD/sodipodi-0.dtd"
   xmlns="http://www.w3.org/2000/svg"
   xmlns:svg="http://www.w3.org/2000/svg">
  <defs
     id="defs62" />
  <sodipodi:namedview
     id="namedview60"
     pagecolor="#ffffff"
     bordercolor="#000000"
     borderopacity="0.25"
     inkscape:showpageshadow="2"
     inkscape:pageopacity="0.0"
     inkscape:pagecheckerboard="0"
     inkscape:deskcolor="#d1d1d1"
     showgrid="false"
     inkscape:zoom="2.0738095"
     inkscape:cx="210.2411"
     inkscape:cy="210.4822"
     inkscape:window-width="1920"
     inkscape:window-height="1022"
     inkscape:window-x="0"
     inkscape:window-y="0"
     inkscape:window-maximized="1"
     inkscape:current-layer="svg58" />
  <path
     d="m 0 0 l 0 0 l -180 110 l 0 200 l 180 110 l 180 -110 l 0 -200 l -180 -110 m 0 50 l 130 80 l 0 160 l -130 80 l -130 -80 l 0 -160 l 130 -80 m 0 35 l -110 70 l 0 110 l 110 70 l 65 -35 l -25 -38 l -40 18 l -60 -40 l 170 0 l 0 -85 l -110 -70 m 0 64 l 60 40 l -120 0 l 60 -40"
     fill="#000000"
     id="path56" />
</svg>
